<?xml version="1.0" encoding="UTF-8"?>
<svg width="24px" height="25px" viewBox="0 0 24 25" version="1.1" xmlns="http://www.w3.org/2000/svg" xmlns:xlink="http://www.w3.org/1999/xlink">
    <!-- Generator: sketchtool 63.1 (101010) - https://sketch.com -->
    <title>8FC8E343-975E-4B1D-A010-0A18782FF7F9</title>
    <desc>Created with sketchtool.</desc>
    <g id="navigation" stroke="none" stroke-width="1" fill="none" fill-rule="evenodd" stroke-linecap="round" stroke-linejoin="round">
        <g id="icons-24x24" transform="translate(-30.000000, -30.000000)" stroke="#757575" stroke-width="2">
            <g id="heart" transform="translate(30.000000, 30.000000)">
                <path d="M19.2327273,6.31727273 C18.3887529,5.47290211 17.2438402,4.99850631 16.05,4.99850631 C14.8561598,4.99850631 13.7112471,5.47290211 12.8672727,6.31727273 L12,7.18454545 L11.1327273,6.31727273 C9.37495553,4.55950104 6.52504449,4.55950106 4.76727277,6.31727277 C3.00950106,8.07504449 3.00950104,10.9249555 4.76727273,12.6827273 L5.63454545,13.55 L11.2928932,19.2083478 C11.6834175,19.5988721 12.3165825,19.5988721 12.7071068,19.2083478 L18.3654545,13.55 L18.3654545,13.55 L19.2327273,12.6827273 C20.0770979,11.8387529 20.5514937,10.6938402 20.5514937,9.5 C20.5514937,8.3061598 20.0770979,7.16124707 19.2327273,6.31727273 Z" id="Path"></path>
            </g>
        </g>
    </g>
</svg>